<svg xmlns="http://www.w3.org/2000/svg" width="1em" height="1em" viewBox="0 0 256 256"><defs><linearGradient id="gtg" x1="0" y1="0" x2="1" y2="1"><stop offset="0" stop-color="#00F3FF"/><stop offset="1" stop-color="#00FF92"/></linearGradient></defs><g fill="url(#gtg)"><path d="M200 56H56a24 24 0 0 0-24 24v112a24 24 0 0 0 24 24h144a24 24 0 0 0 24-24V80a24 24 0 0 0-24-24m-36 128H92a20 20 0 0 1 0-40h72a20 20 0 0 1 0 40" opacity=".2"/><path d="M200 48h-64V16a8 8 0 0 0-16 0v32H56a32 32 0 0 0-32 32v112a32 32 0 0 0 32 32h144a32 32 0 0 0 32-32V80a32 32 0 0 0-32-32m16 144a16 16 0 0 1-16 16H56a16 16 0 0 1-16-16V80a16 16 0 0 1 16-16h144a16 16 0 0 1 16 16ZM72 108a12 12 0 1 1 12 12a12 12 0 0 1-12-12m88 0a12 12 0 1 1 12 12a12 12 0 0 1-12-12m4 28H92a28 28 0 0 0 0 56h72a28 28 0 0 0 0-56m-24 16v24h-24v-24Zm-60 12a12 12 0 0 1 12-12h8v24h-8a12 12 0 0 1-12-12m84 12h-8v-24h8a12 12 0 0 1 0 24"/></g></svg>