<svg xmlns="http://www.w3.org/2000/svg" width="1em" height="1em" viewBox="0 0 256 256"><defs><linearGradient id="gtg" x1="0" y1="0" x2="1" y2="1"><stop offset="0" stop-color="#00F3FF"/><stop offset="1" stop-color="#00FF92"/></linearGradient></defs><g fill="url(#gtg)"><path d="M224 200a24 24 0 1 1-24-24a24 24 0 0 1 24 24" opacity=".2"/><path d="M200 168a32.06 32.06 0 0 0-31 24H72a32 32 0 0 1 0-64h96a40 40 0 0 0 0-80H72a8 8 0 0 0 0 16h96a24 24 0 0 1 0 48H72a48 48 0 0 0 0 96h97a32 32 0 1 0 31-40m0 48a16 16 0 1 1 16-16a16 16 0 0 1-16 16"/></g></svg>